# xmcd CD database file
#
# Track frame offsets:
#	150
#	15418
#	27540
#	45373
#	57650
#	70996
#	83183
#	99496
#	119715
#	142317
#	156028
#	171741
#
# Disc length: 2706 seconds
#
# Revision: 0
# Processed by: cddbd v1.5.2PL0 Copyright (c) Steve Scherf et al.
# Submitted via: CDex 1.97
#
DISCID=af0a900c
DTITLE=Cyclown - Circus
DYEAR=2011
DGENRE=Jazz
TTITLE0=Shake It
TTITLE1=Lady Be Good
TTITLE2=Wiper Maid
TTITLE3=Baltimore
TTITLE4=Lucille
TTITLE5=Square Dance
TTITLE6=Ol' Joe
TTITLE7=Sweet Lotus Blossom
TTITLE8=Minor Blues
TTITLE9=I Love Dixie
TTITLE10=Depend On Me
TTITLE11=Butt Love
EXTD=YEAR: 2011
EXTT0=
EXTT1=
EXTT2=
EXTT3=
EXTT4=
EXTT5=
EXTT6=
EXTT7=
EXTT8=
EXTT9=
EXTT10=
EXTT11=
PLAYORDER=
